<?xml version="1.0" standalone="no"?>
<!DOCTYPE svg PUBLIC "-//W3C//DTD SVG 20010904//EN"
 "http://www.w3.org/TR/2001/REC-SVG-20010904/DTD/svg10.dtd">
<svg version="1.0" xmlns="http://www.w3.org/2000/svg"
 width="512.000000pt" height="512.000000pt" viewBox="0 0 512.000000 512.000000"
 preserveAspectRatio="xMidYMid meet">
<metadata>
Created by potrace 1.11, written by Peter Selinger 2001-2013
</metadata>
<g transform="translate(0.000000,512.000000) scale(0.100000,-0.100000)"
fill="#000000" stroke="none">
<path d="M2408 4605 c-2 -1 -30 -5 -63 -8 -33 -4 -85 -11 -115 -16 -30 -6 -71
-13 -90 -16 -60 -10 -211 -54 -310 -92 -180 -68 -415 -203 -565 -325 -145
-117 -346 -348 -452 -518 -79 -127 -199 -399 -219 -494 -2 -10 -8 -33 -14 -50
-5 -17 -14 -53 -20 -81 -5 -27 -12 -61 -15 -75 -3 -14 -7 -43 -10 -65 -3 -22
-8 -58 -11 -80 -12 -82 -11 -353 2 -460 35 -289 139 -599 272 -809 62 -99 79
-124 122 -181 71 -94 87 -113 205 -230 296 -297 697 -504 1090 -564 39 -6 88
-13 110 -17 22 -3 112 -7 200 -9 259 -4 471 29 707 111 293 102 541 258 770
484 385 381 594 872 603 1415 3 170 -6 270 -40 460 -11 61 -57 213 -92 305
-102 269 -256 504 -463 710 -135 134 -141 139 -240 211 -274 200 -572 323
-905 374 -90 14 -446 30 -457 20z"/>
</g>
</svg>
